<?xml version="1.0" encoding="UTF-8"?>
<svg id="Layer_1" data-name="Layer 1" xmlns="http://www.w3.org/2000/svg" viewBox="0 0 242.53 55.63">
  <defs>
    <style>
      .cls-1 {
        fill: #a90533;
      }

      .cls-2 {
        stroke: #000;
        stroke-miterlimit: 10;
        stroke-width: 1.15px;
      }
    </style>
  </defs>
  <g>
    <rect class="cls-1" x="5" y="5.27" width="6.1" height="15.39" transform="translate(-6.81 9.48) rotate(-45)"/>
    <rect x="10.61" y=".77" width="6.51" height="51.12"/>
    <rect class="cls-1" x="-.48" y="14.92" width="29.54" height="6.1" transform="translate(-8.52 15.36) rotate(-45)"/>
    <rect class="cls-1" x="-.9" y="25.91" width="29.54" height="6.1" transform="translate(-16.41 18.29) rotate(-45)"/>
    <rect class="cls-1" x="-.48" y="36.24" width="29.54" height="6.1" transform="translate(-23.6 21.61) rotate(-45)"/>
  </g>
  <g>
    <path class="cls-2" d="M47.23,21.38h-5.44l-1.43,4.56h-1.94l5.06-14.94h2.14l5.06,14.94h-2l-1.43-4.56ZM46.75,19.86l-.71-2.28c-.52-1.66-1-3.3-1.48-5.03h-.09c-.48,1.73-.96,3.37-1.48,5.03l-.73,2.28h4.49Z"/>
    <path class="cls-2" d="M53.95,22.68c1.07,1.12,2.55,1.87,4.12,1.87,1.96,0,3.12-.98,3.12-2.44s-1.09-2-2.51-2.64l-2.14-.93c-1.39-.59-3.03-1.66-3.03-3.85s2-3.96,4.71-3.96c1.78,0,3.35.75,4.4,1.84l-1,1.23c-.91-.87-2.03-1.41-3.39-1.41-1.69,0-2.8.84-2.8,2.19,0,1.43,1.32,1.98,2.48,2.48l2.14.91c1.73.75,3.07,1.78,3.07,3.99,0,2.37-1.96,4.26-5.1,4.26-2.1,0-3.92-.87-5.22-2.21l1.14-1.32Z"/>
    <path class="cls-2" d="M65.93,11h1.91v14.94h-1.91v-14.94Z"/>
    <path class="cls-2" d="M79.98,21.38h-5.44l-1.43,4.56h-1.94l5.06-14.94h2.14l5.06,14.94h-2l-1.43-4.56ZM79.5,19.86l-.71-2.28c-.52-1.66-1-3.3-1.48-5.03h-.09c-.48,1.73-.96,3.37-1.48,5.03l-.73,2.28h4.49Z"/>
    <path class="cls-2" d="M86.31,11h1.96l5.42,9.38,1.62,3.1h.09c-.09-1.5-.25-3.19-.25-4.76v-7.72h1.8v14.94h-1.96l-5.4-9.41-1.62-3.07h-.09c.09,1.5.23,3.1.23,4.67v7.81h-1.8v-14.94Z"/>
    <path class="cls-2" d="M105.08,11h1.91v13.32h6.51v1.62h-8.43v-14.94Z"/>
    <path class="cls-2" d="M116.94,11h1.91v14.94h-1.91v-14.94Z"/>
    <path class="cls-2" d="M121.7,11h2l2.41,8.06c.52,1.78.89,3.19,1.43,4.94h.09c.55-1.75.93-3.17,1.43-4.94l2.39-8.06h1.94l-4.74,14.94h-2.21l-4.76-14.94Z"/>
    <path class="cls-2" d="M135.77,11h8.61v1.59h-6.7v4.69h5.65v1.62h-5.65v5.42h6.92v1.62h-8.84v-14.94Z"/>
    <path class="cls-2" d="M156.29,25.94l-3.6-6.31h-2.69v6.31h-1.91v-14.94h4.69c3.03,0,5.22,1.09,5.22,4.19,0,2.32-1.32,3.71-3.35,4.24l3.8,6.51h-2.16ZM150.01,18.08h2.51c2.32,0,3.6-.96,3.6-2.89s-1.28-2.66-3.6-2.66h-2.51v5.56Z"/>
    <path class="cls-2" d="M171.19,10.72c1.78,0,3.19.87,4.08,1.84l-1.07,1.21c-.8-.84-1.75-1.39-2.98-1.39-2.85,0-4.74,2.32-4.74,6.04s1.8,6.13,4.65,6.13c1.41,0,2.46-.59,3.42-1.66l1.07,1.16c-1.16,1.37-2.64,2.16-4.53,2.16-3.76,0-6.56-2.87-6.56-7.74s2.85-7.74,6.67-7.74Z"/>
    <path class="cls-2" d="M178.73,11h8.61v1.59h-6.7v4.69h5.65v1.62h-5.65v5.42h6.92v1.62h-8.84v-14.94Z"/>
    <path class="cls-2" d="M190.61,11h1.96l5.42,9.38,1.62,3.1h.09c-.09-1.5-.25-3.19-.25-4.76v-7.72h1.8v14.94h-1.96l-5.4-9.41-1.62-3.07h-.09c.09,1.5.23,3.1.23,4.67v7.81h-1.8v-14.94Z"/>
    <path class="cls-2" d="M208.35,12.59h-4.53v-1.59h10.96v1.59h-4.53v13.35h-1.89v-13.35Z"/>
    <path class="cls-2" d="M217.33,11h8.61v1.59h-6.7v4.69h5.65v1.62h-5.65v5.42h6.92v1.62h-8.84v-14.94Z"/>
    <path class="cls-2" d="M236.98,25.94l-3.6-6.31h-2.69v6.31h-1.91v-14.94h4.69c3.03,0,5.22,1.09,5.22,4.19,0,2.32-1.32,3.71-3.35,4.24l3.8,6.51h-2.16ZM230.69,18.08h2.51c2.32,0,3.6-.96,3.6-2.89s-1.28-2.66-3.6-2.66h-2.51v5.56Z"/>
  </g>
  <g>
    <path d="M44.26,38.16c-.02-.89-.39-1.64-1.52-1.64-.84,0-1.62.38-2.36.82l-.72-1.32c.92-.58,2.1-1.09,3.44-1.09,2.1,0,3.13,1.28,3.13,3.62v4.97h-1.61l-.15-.92h-.05c-.75.63-1.61,1.13-2.6,1.13-1.47,0-2.5-.99-2.5-2.46,0-1.79,1.5-2.74,4.94-3.11ZM42.43,42.2c.68,0,1.21-.34,1.83-.92v-1.88c-2.27.29-3.03.89-3.03,1.73,0,.75.5,1.08,1.2,1.08Z"/>
    <path d="M48.91,36.69h-1.2v-1.47l1.3-.09.24-2.29h1.64v2.29h2.14v1.56h-2.14v4c0,.99.38,1.47,1.18,1.47.29,0,.63-.09.87-.19l.34,1.45c-.46.15-1.04.31-1.71.31-1.95,0-2.67-1.23-2.67-3.04v-4Z"/>
    <path d="M59.84,40.75c.8.75,1.88,1.27,2.92,1.27,1.25,0,1.95-.56,1.95-1.44,0-.92-.72-1.21-1.74-1.64l-1.52-.67c-1.11-.46-2.26-1.33-2.26-2.97,0-1.78,1.57-3.15,3.74-3.15,1.32,0,2.58.55,3.45,1.42l-1.03,1.27c-.7-.6-1.47-.96-2.43-.96-1.06,0-1.74.5-1.74,1.32,0,.87.85,1.2,1.78,1.57l1.5.63c1.33.56,2.26,1.4,2.26,3.03,0,1.81-1.5,3.32-4.02,3.32-1.5,0-2.96-.6-4.02-1.64l1.15-1.35Z"/>
    <path d="M68.71,36.69h-1.2v-1.47l1.3-.09.24-2.29h1.64v2.29h2.14v1.56h-2.14v4c0,.99.38,1.47,1.18,1.47.29,0,.63-.09.87-.19l.34,1.45c-.46.15-1.04.31-1.71.31-1.95,0-2.67-1.23-2.67-3.04v-4Z"/>
    <path d="M79.24,38.16c-.02-.89-.39-1.64-1.52-1.64-.84,0-1.62.38-2.36.82l-.72-1.32c.92-.58,2.1-1.09,3.44-1.09,2.1,0,3.13,1.28,3.13,3.62v4.97h-1.61l-.15-.92h-.05c-.75.63-1.61,1.13-2.6,1.13-1.47,0-2.5-.99-2.5-2.46,0-1.79,1.5-2.74,4.94-3.11ZM77.41,42.2c.68,0,1.21-.34,1.83-.92v-1.88c-2.27.29-3.03.89-3.03,1.73,0,.75.5,1.08,1.2,1.08Z"/>
    <path d="M83.77,35.14h1.62l.14,1.13h.07c.75-.74,1.61-1.33,2.75-1.33,1.79,0,2.58,1.21,2.58,3.33v5.27h-1.97v-5.01c0-1.38-.39-1.9-1.32-1.9-.74,0-1.21.36-1.91,1.04v5.86h-1.97v-8.39Z"/>
    <path d="M97.79,33.02c-.31-.14-.63-.21-.92-.21-.68,0-1.06.44-1.06,1.42v.91h1.64v1.56h-1.64v6.84h-1.97v-6.84h-1.13v-1.47l1.13-.09v-.87c0-1.74.8-3.01,2.79-3.01.6,0,1.16.14,1.54.29l-.38,1.47Z"/>
    <path d="M102.35,34.93c2.1,0,4,1.61,4,4.41s-1.9,4.39-4,4.39-3.98-1.61-3.98-4.39,1.9-4.41,3.98-4.41ZM102.35,42.13c1.23,0,1.98-1.11,1.98-2.79s-.75-2.8-1.98-2.8-1.97,1.11-1.97,2.8.74,2.79,1.97,2.79Z"/>
    <path d="M108.3,35.14h1.62l.14,1.49h.07c.6-1.09,1.49-1.69,2.38-1.69.43,0,.7.05.96.17l-.34,1.71c-.29-.09-.51-.14-.87-.14-.67,0-1.47.46-1.98,1.73v5.13h-1.97v-8.39Z"/>
    <path d="M117.72,34.93c.96,0,1.56.36,2.21.92l-.07-1.35v-3.04h1.97v12.07h-1.62l-.14-.91h-.07c-.62.62-1.47,1.11-2.38,1.11-2.1,0-3.45-1.62-3.45-4.39s1.73-4.41,3.56-4.41ZM118.1,42.11c.65,0,1.2-.29,1.76-.94v-3.91c-.58-.51-1.15-.7-1.71-.7-1.08,0-1.95,1.01-1.95,2.77s.68,2.79,1.9,2.79Z"/>
    <path d="M128.92,32.35h1.98v6.43c0,2.43.92,3.23,2.27,3.23s2.31-.8,2.31-3.23v-6.43h1.91v6.27c0,3.68-1.64,5.11-4.22,5.11s-4.26-1.44-4.26-5.11v-6.27Z"/>
    <path d="M139.81,35.14h1.62l.14,1.13h.07c.75-.74,1.61-1.33,2.75-1.33,1.79,0,2.58,1.21,2.58,3.33v5.27h-1.97v-5.01c0-1.38-.39-1.9-1.32-1.9-.74,0-1.21.36-1.91,1.04v5.86h-1.97v-8.39Z"/>
    <path d="M149.31,32.56c0-.67.51-1.13,1.21-1.13s1.21.46,1.21,1.13-.51,1.11-1.21,1.11-1.21-.46-1.21-1.11ZM149.54,35.14h1.97v8.39h-1.97v-8.39Z"/>
    <path d="M153.47,35.14h2l1.33,4.36c.22.82.48,1.68.7,2.53h.07c.24-.85.48-1.71.72-2.53l1.33-4.36h1.9l-2.85,8.39h-2.27l-2.92-8.39Z"/>
    <path d="M166.44,34.93c2.27,0,3.47,1.64,3.47,3.98,0,.38-.03.72-.09.92h-5.33c.17,1.52,1.13,2.38,2.48,2.38.72,0,1.33-.22,1.95-.62l.67,1.23c-.8.53-1.81.91-2.87.91-2.33,0-4.14-1.62-4.14-4.39s1.9-4.41,3.86-4.41ZM168.21,38.59c0-1.33-.56-2.14-1.71-2.14-.99,0-1.85.74-2.02,2.14h3.73Z"/>
    <path d="M171.81,35.14h1.62l.14,1.49h.07c.6-1.09,1.49-1.69,2.38-1.69.43,0,.7.05.96.17l-.34,1.71c-.29-.09-.51-.14-.87-.14-.67,0-1.47.46-1.98,1.73v5.13h-1.97v-8.39Z"/>
    <path d="M178.62,41.31c.75.58,1.47.94,2.32.94.91,0,1.33-.43,1.33-1.01,0-.7-.91-1.01-1.79-1.35-1.11-.41-2.36-1.04-2.36-2.44s1.18-2.51,3.06-2.51c1.16,0,2.1.48,2.79,1.01l-.91,1.2c-.58-.43-1.18-.72-1.85-.72-.84,0-1.23.39-1.23.92,0,.65.84.92,1.74,1.25,1.15.43,2.41.97,2.41,2.55,0,1.44-1.15,2.6-3.27,2.6-1.15,0-2.36-.5-3.18-1.16l.92-1.27Z"/>
    <path d="M186.19,32.56c0-.67.51-1.13,1.21-1.13s1.21.46,1.21,1.13-.51,1.11-1.21,1.11-1.21-.46-1.21-1.11ZM186.41,35.14h1.97v8.39h-1.97v-8.39Z"/>
    <path d="M191.68,36.69h-1.2v-1.47l1.3-.09.24-2.29h1.64v2.29h2.14v1.56h-2.14v4c0,.99.38,1.47,1.18,1.47.29,0,.63-.09.87-.19l.34,1.45c-.46.15-1.04.31-1.71.31-1.95,0-2.67-1.23-2.67-3.04v-4Z"/>
    <path d="M198.48,45.4c.89,0,1.4-.6,1.68-1.44l.15-.53-3.3-8.29h2l1.45,4.12c.24.74.48,1.57.74,2.36h.07c.21-.77.43-1.61.63-2.36l1.26-4.12h1.9l-3.04,8.77c-.7,1.9-1.57,3.08-3.4,3.08-.46,0-.79-.07-1.09-.17l.36-1.54c.15.05.39.12.6.12Z"/>
  </g>
</svg>